<svg width="250" height="250" viewBox="0 0 66.146 66.146" xmlns="http://www.w3.org/2000/svg"><path fill="currentColor" d="M29.213 63.356c-6.55-.901-12.842-4.015-17.535-8.677C1.148 44.217-.402 28.336 7.89 15.847c1.549-2.333 5.658-6.432 8.028-8.009 5.394-3.588 10.72-5.204 17.147-5.204 8.04 0 15.07 2.77 20.865 8.22 9.645 9.074 12.358 23.236 6.719 35.066-1.736 3.64-3.253 5.793-6.09 8.637-4.501 4.515-9.372 7.14-15.655 8.437-2.377.491-7.393.678-9.691.362zm6.71-2.473c11.038-1.24 20.117-8.508 23.581-18.88 1.258-3.764 1.35-4.57.63-5.543-.322-.434-1.134-1.629-1.806-2.655-.672-1.026-1.508-2.173-1.858-2.549-1.02-1.094-1.784-.82-1.788.642-.002 1.016-.536 2.466-1.126 3.055-1.128 1.13-1.632.87-4.895-2.527-2.838-2.953-3.806-3.787-4.08-3.513-.271.272.958 2.12 2.255 3.39.874.856 1.387 1.567 1.387 1.92 0 .31-.561 1.613-1.247 2.896l-1.248 2.335.03 4.093c.027 3.9-.001 4.15-.591 5.313-1.723 3.392-6.775 7.047-9.742 7.048-2.04.001-4.255-1.613-5.397-3.933-.766-1.557-.748-3.455.05-5.19.58-1.26.592-1.385.31-3.603-.339-2.675-.883-4.428-1.565-5.045-.45-.408-.707-.415-3.681-.112-3.143.32-3.217.316-4.356-.235-1.355-.656-2.757-2.358-3.153-3.829-.15-.557-.233-1.805-.184-2.773.075-1.482.226-1.987.957-3.194 1.215-2.01 3.037-3.984 4.213-4.566l.998-.494-1.054-.141c-2.017-.27-2.775-2.24-1.685-4.376.68-1.334 2.594-2.956 3.704-3.14 1.401-.232 1.407-.237 2.211-1.642 1.034-1.808 3.231-4.332 4.53-5.204 1.247-.839 2.972-.965 4.723-.347.582.205 1.138.373 1.237.373.154 0 1.745-2.37 1.745-2.6 0-.204-.92-.38-3.345-.641-4.533-.488-9.467.308-13.86 2.238-6.283 2.759-11.694 8.192-14.391 14.448-.526 1.22-.957 2.527-.957 2.904 0 1.052 1.193 7.64 1.778 9.82.465 1.73.69 2.124 2.092 3.651.864.941 1.738 2.035 1.942 2.431.708 1.37.976 3.977.825 8.032l-.144 3.882 1.289 1.097c4.117 3.504 7.437 5.299 11.914 6.442 3.495.892 6.353 1.104 9.751.722zm1.073-38.067c-.092-.633-1.35-1.557-2.66-1.952-.494-.149-1.966-.331-3.27-.406l-2.371-.135L26.22 21.6l-2.474 1.277 1.74-.134c.956-.073 3.193.022 4.97.21 1.776.189 3.992.359 4.924.378 1.617.034 1.691.01 1.616-.515z"/></svg>
