<svg width="230.842" height="247.477" viewBox="0 0 216.414 232.01" xmlns="http://www.w3.org/2000/svg"><path style="stroke-width:1.06667" d="M115.057 0C83.418.258 52.983 3.685 35.248 11.83c0 0-35.174 15.737-35.174 69.422 0 12.293-.24 26.99.149 42.578 1.276 52.501 9.624 104.244 58.166 117.092 22.38 5.924 41.597 7.164 57.074 6.314 28.064-1.556 43.82-10.015 43.82-10.015l-.926-20.364s-20.056 6.324-42.58 5.553c-22.315-.766-45.874-2.405-49.484-29.805-.334-2.406-.5-4.98-.5-7.683 0 0 21.908 5.355 49.67 6.627 16.976.778 32.895-.994 49.064-2.924 31.008-3.702 58.009-22.809 61.4-40.266 5.348-27.5 4.907-67.109 4.907-67.109 0-53.685-35.174-69.42-35.174-69.42C177.925 3.685 147.471.258 115.834 0h-.777zM79.25 41.947c13.179 0 23.158 5.065 29.758 15.198l6.414 10.753 6.416-10.753c6.597-10.132 16.578-15.198 29.758-15.198 11.388 0 20.564 4.004 27.572 11.815 6.794 7.81 10.176 18.369 10.176 31.654v65.004H163.59V87.326c0-13.3-5.596-20.05-16.79-20.05-12.375 0-18.577 8.007-18.577 23.841v34.535H102.62V91.117c0-15.834-6.205-23.842-18.58-23.842-11.194 0-16.789 6.75-16.789 20.051v63.094H41.498V85.416c0-13.285 3.383-23.843 10.178-31.654 7.007-7.81 16.183-11.815 27.574-11.815z" transform="scale(.9375)" fill="currentColor"/></svg>
