<?xml version="1.0" encoding="UTF-8" standalone="no"?>
<svg
   xmlns:dc="http://purl.org/dc/elements/1.1/"
   xmlns:cc="http://creativecommons.org/ns#"
   xmlns:rdf="http://www.w3.org/1999/02/22-rdf-syntax-ns#"
   xmlns:svg="http://www.w3.org/2000/svg"
   xmlns="http://www.w3.org/2000/svg"
   xmlns:sodipodi="http://sodipodi.sourceforge.net/DTD/sodipodi-0.dtd"
   xmlns:inkscape="http://www.inkscape.org/namespaces/inkscape"
   width="100"
   height="100"
   version="1.1"
   viewBox="0 0 26.458 26.458"
   id="svg12"
   sodipodi:docname="globe.svg"
   inkscape:version="0.92.3 (2405546, 2018-03-11)">
  <metadata
     id="metadata18">
    <rdf:RDF>
      <cc:Work
         rdf:about="">
        <dc:format>image/svg+xml</dc:format>
        <dc:type
           rdf:resource="http://purl.org/dc/dcmitype/StillImage" />
      </cc:Work>
    </rdf:RDF>
  </metadata>
  <defs
     id="defs16" />
  <sodipodi:namedview
     pagecolor="#ffffff"
     bordercolor="#666666"
     borderopacity="1"
     objecttolerance="10"
     gridtolerance="10"
     guidetolerance="10"
     inkscape:pageopacity="0"
     inkscape:pageshadow="2"
     inkscape:window-width="1912"
     inkscape:window-height="1015"
     id="namedview14"
     showgrid="false"
     inkscape:zoom="5.8760574"
     inkscape:cx="50.924306"
     inkscape:cy="41.108477"
     inkscape:window-x="4"
     inkscape:window-y="61"
     inkscape:window-maximized="0"
     inkscape:current-layer="svg12" />
  <path
     style="fill:#872f41;stroke-width:3.77959991;paint-order:normal"
     d="M 50 0 C 22.385763 0 0 22.385763 0 50 C 0 77.614237 22.385763 100 50 100 C 77.614237 100 100 77.614237 100 50 C 100 22.385763 77.614237 0 50 0 z M 50.173828 20.292969 A 29.611692 29.611692 0 0 1 76.105469 37.197266 A 29.611692 29.611692 0 0 1 62.048828 76.644531 A 29.611692 29.611692 0 0 1 22.601562 62.587891 A 29.611692 29.611692 0 0 1 36.65625 23.140625 A 29.611692 29.611692 0 0 1 48.076172 20.308594 A 29.611692 29.611692 0 0 1 50.173828 20.292969 z M 51.142578 26.626953 L 51.142578 39.953125 C 57.948757 39.705639 62.206352 38.266632 64.724609 36.923828 C 66.028978 36.228303 66.867268 35.566638 67.384766 35.087891 A 23.354171 23.354171 0 0 0 51.142578 26.626953 z M 46.691406 26.714844 A 23.354171 23.354171 0 0 0 39.339844 28.792969 A 23.354171 23.354171 0 0 0 31.755859 34.580078 C 31.78156 34.612348 31.778824 34.613854 31.808594 34.650391 C 32.218757 35.153778 32.945805 35.898048 34.171875 36.681641 C 36.363275 38.082184 40.196795 39.621688 46.691406 39.935547 L 46.691406 26.714844 z M 28.835938 38.789062 A 23.354171 23.354171 0 0 0 28.253906 59.90625 A 23.354171 23.354171 0 0 0 29.607422 62.310547 C 30.141105 61.851229 30.748324 61.381438 31.476562 60.916016 C 34.520052 58.970891 39.347226 57.199635 46.691406 56.873047 L 46.691406 44.939453 C 39.347226 44.612865 34.520052 42.841609 31.476562 40.896484 C 30.362413 40.184422 29.509338 39.459958 28.835938 38.789062 z M 70.152344 39.302734 C 69.380607 39.937684 68.375629 40.641206 67.080078 41.332031 C 63.80036 43.080865 58.693554 44.699795 51.142578 44.955078 L 51.142578 56.857422 C 58.693554 57.111689 63.80036 58.723819 67.080078 60.472656 C 67.972746 60.948652 68.729823 61.434275 69.367188 61.898438 A 23.354171 23.354171 0 0 0 70.451172 39.878906 A 23.354171 23.354171 0 0 0 70.152344 39.302734 z M 51.142578 61.853516 L 51.142578 73.152344 A 23.354171 23.354171 0 0 0 59.365234 70.992188 A 23.354171 23.354171 0 0 0 66.359375 65.896484 C 65.91685 65.580027 65.382336 65.237436 64.724609 64.886719 C 62.206352 63.543914 57.948757 62.102092 51.142578 61.853516 z M 46.691406 61.869141 C 40.19679 62.184255 36.363276 63.730315 34.171875 65.130859 C 33.568794 65.516294 33.088361 65.891956 32.705078 66.234375 A 23.354171 23.354171 0 0 0 46.691406 73.066406 L 46.691406 61.869141 z "
     transform="scale(0.26458)"
     id="path10" />
</svg>
