<svg version="1.1" viewBox="0 0 612 612" xmlns="http://www.w3.org/2000/svg"><path d="m306 0a306 306 0 0 0-306 306 306 306 0 0 0 306 306 306 306 0 0 0 306-306 306 306 0 0 0-306-306zm106.87 143.39c26.42 0 50.238 12.125 66.984 31.594 20.912-4.5092 40.538-12.828 58.318-24.283-6.8769 23.308-21.387 42.929-40.342 55.299a183.28 199.74 0 0 0 52.699-15.752c-12.273 20.048-27.872 37.658-45.904 51.674l0.30859 12.949c0 132.17-92.287 284.57-261.12 284.57-51.832 0-100.06-16.575-140.68-45.002 7.1847 0.88353 14.482 1.3711 21.891 1.3711 42.998 0 82.584-15.934 113.98-42.746-40.147-0.79269-74.031-29.705-85.717-69.465 5.6195 1.2189 11.351 1.8574 17.277 1.8574 8.3872 0 16.493-1.2493 24.182-3.5039-41.963-9.2017-73.609-49.631-73.609-98.074v-1.25a91.787 100.03 0 0 0 41.572 12.553c-24.602-17.914-40.818-48.534-40.818-83.236 0-18.342 4.502-35.525 12.414-50.271 45.262 60.509 112.89 100.33 189.16 104.5-1.5659-7.3128-2.377-14.959-2.377-22.789 0-55.207 41.097-99.994 91.783-99.994z" fill="#872f41" style="paint-order:normal"/></svg>
