<?xml version="1.0" encoding="UTF-8" standalone="no"?>
<svg
   xmlns:dc="http://purl.org/dc/elements/1.1/"
   xmlns:cc="http://creativecommons.org/ns#"
   xmlns:rdf="http://www.w3.org/1999/02/22-rdf-syntax-ns#"
   xmlns:svg="http://www.w3.org/2000/svg"
   xmlns="http://www.w3.org/2000/svg"
   xmlns:xlink="http://www.w3.org/1999/xlink"
   xmlns:sodipodi="http://sodipodi.sourceforge.net/DTD/sodipodi-0.dtd"
   xmlns:inkscape="http://www.inkscape.org/namespaces/inkscape"
   viewBox="0 0 24 24"
   width="24"
   height="24"
   version="1.1"
   id="svg6"
   sodipodi:docname="logo.svg"
   inkscape:version="0.92.5 (2060ec1f9f, 2020-04-08)"
   inkscape:export-filename="/home/joao/dev/raven-joy/src/assets/logo.png"
   inkscape:export-xdpi="256"
   inkscape:export-ydpi="256">
  <metadata
     id="metadata12">
    <rdf:RDF>
      <cc:Work
         rdf:about="">
        <dc:format>image/svg+xml</dc:format>
        <dc:type
           rdf:resource="http://purl.org/dc/dcmitype/StillImage" />
        <dc:title></dc:title>
      </cc:Work>
    </rdf:RDF>
  </metadata>
  <defs
     id="defs10">
    <linearGradient
       inkscape:collect="always"
       id="linearGradient4526">
      <stop
         style="stop-color:#56ff95;stop-opacity:1"
         offset="0"
         id="stop4522" />
      <stop
         style="stop-color:#4cc5ff;stop-opacity:1"
         offset="1"
         id="stop4524" />
    </linearGradient>
    <linearGradient
       inkscape:collect="always"
       xlink:href="#linearGradient4526"
       id="linearGradient4528"
       x1="0"
       y1="0"
       x2="24"
       y2="24"
       gradientUnits="userSpaceOnUse" />
  </defs>
  <sodipodi:namedview
     pagecolor="#ffffff"
     bordercolor="#666666"
     borderopacity="1"
     objecttolerance="10"
     gridtolerance="10"
     guidetolerance="10"
     inkscape:pageopacity="0"
     inkscape:pageshadow="2"
     inkscape:window-width="1338"
     inkscape:window-height="844"
     id="namedview8"
     showgrid="false"
     inkscape:zoom="13.906433"
     inkscape:cx="14.218036"
     inkscape:cy="11.125799"
     inkscape:window-x="371"
     inkscape:window-y="111"
     inkscape:window-maximized="0"
     inkscape:current-layer="svg6" />
  <path
     sodipodi:type="inkscape:offset"
     inkscape:radius="0.35368243"
     inkscape:original="M 13 2.9316406 C 7.6449131 2.9316406 3.3105469 7.2660066 3.3105469 12.621094 C 3.3105469 14.828288 3.4003319 16.30045 3.625 17.564453 C 3.75566 18.031737 4.4955707 18.304913 5.2421875 18.310547 L 9 18.310547 C 12.245155 18.310547 15.15247 17.246171 17.259766 15.017578 C 19.367061 12.788986 20.689453 9.3767887 20.689453 4.6210938 L 20.689453 2.984375 C 16.896483 3.8302226 14.828818 2.9316406 13 2.9316406 z M 13 4.3105469 C 13.414544 4.3105469 13.672855 4.3404669 14.824219 4.5136719 C 16.38389 4.7476722 17.62605 4.8311424 18.966797 4.7011719 C 19.151138 4.6838099 19.309665 4.8304928 19.306641 5.015625 C 19.242791 8.8864848 18.233399 11.868391 16.439453 13.886719 C 14.645507 15.905047 12.075899 16.931641 9 16.931641 L 5.7753906 16.931641 C 5.5595544 16.931192 5.4099009 16.716253 5.484375 16.513672 C 6.4516136 13.877922 8.3431469 12.004976 11.082031 10.388672 L 10.394531 9.1894531 C 8.1581944 10.505867 6.4435319 11.985252 5.2714844 13.833984 C 5.106107 14.091969 4.7066587 13.980178 4.6992188 13.673828 C 4.6921602 13.33602 4.6894531 12.984677 4.6894531 12.621094 C 4.6894531 8.0351468 8.4140532 4.3105469 13 4.3105469 z "
     xlink:href="#path4"
     style="fill:url(#linearGradient4528);fill-opacity:1"
     id="path4538"
     d="m 13,2.578125 c -5.5459321,0 -10.0429688,4.4970361 -10.0429688,10.042969 0,2.216785 0.090205,3.711255 0.3203126,5.005859 a 0.3537178,0.3537178 0 0 0 0.00781,0.0332 c 0.1071411,0.383173 0.4263937,0.623631 0.7773438,0.775391 0.3509501,0.15176 0.7621755,0.22538 1.1777344,0.228515 a 0.3537178,0.3537178 0 0 0 0.00195,0 H 9 c 3.322491,0 6.337331,-1.098553 8.517578,-3.404296 2.18037,-2.305873 3.525391,-5.8174129 3.525391,-10.6386722 V 2.984375 A 0.3537178,0.3537178 0 0 0 20.613281,2.6386719 C 16.8989,3.4669938 14.944672,2.578125 13,2.578125 Z m 0,2.0859375 c 0.397526,0 0.621891,0.02628 1.771484,0.1992187 1.5551,0.2333145 2.821118,0.3177333 4.177735,0.1914063 C 18.878856,8.8434562 17.89137,11.722174 16.175781,13.652344 14.453685,15.589836 11.997204,16.578125 9,16.578125 H 5.84375 c 0.9409707,-2.514675 2.7421507,-4.305679 5.417969,-5.884766 a 0.3537178,0.3537178 0 0 0 0.126953,-0.480468 l -0.6875,-1.1992191 A 0.3537178,0.3537178 0 0 0 10.214844,8.8847656 C 7.9906963,10.194004 6.2582797,11.682398 5.0507812,13.539062 5.0455355,13.242091 5.0429688,12.938958 5.0429688,12.621094 5.0429688,8.2266483 8.605555,4.6640625 13,4.6640625 Z"
     transform="matrix(1.3130206,-0.16085763,0.16085763,1.3130206,-5.2098923,0.09168885)"
     inkscape:href="#path4" />
</svg>
