<?xml version="1.0" encoding="UTF-8" standalone="no"?>
<!-- Created with Inkscape (http://www.inkscape.org/) -->

<svg
   xmlns:dc="http://purl.org/dc/elements/1.1/"
   xmlns:cc="http://creativecommons.org/ns#"
   xmlns:rdf="http://www.w3.org/1999/02/22-rdf-syntax-ns#"
   xmlns:svg="http://www.w3.org/2000/svg"
   xmlns="http://www.w3.org/2000/svg"
   xmlns:xlink="http://www.w3.org/1999/xlink"
   xmlns:sodipodi="http://sodipodi.sourceforge.net/DTD/sodipodi-0.dtd"
   xmlns:inkscape="http://www.inkscape.org/namespaces/inkscape"
   width="387.54462"
   height="184.09375"
   id="svg2"
   version="1.1"
   inkscape:version="0.48.4 r9939"
   inkscape:export-filename="/home/joaolopes/joaolopes/img/list-solid.png"
   inkscape:export-xdpi="8.2622938"
   inkscape:export-ydpi="8.2622938"
   sodipodi:docname="New document 1">
  <defs
     id="defs4">
    <linearGradient
       id="linearGradient3792">
      <stop
         style="stop-color:#000000;stop-opacity:0.46280992;"
         offset="0"
         id="stop3794" />
      <stop
         id="stop3800"
         offset="0.16901408"
         style="stop-color:#250c06;stop-opacity:0;" />
      <stop
         style="stop-color:#000000;stop-opacity:0;"
         offset="1"
         id="stop3796" />
    </linearGradient>
    <linearGradient
       inkscape:collect="always"
       xlink:href="#linearGradient3792"
       id="linearGradient3798"
       x1="35.714287"
       y1="265.57645"
       x2="392.14285"
       y2="265.57645"
       gradientUnits="userSpaceOnUse"
       gradientTransform="matrix(1.3767535,0,0,0.24324287,-575.59832,-320.17601)" />
  </defs>
  <sodipodi:namedview
     id="base"
     pagecolor="#ffffff"
     bordercolor="#666666"
     borderopacity="1.0"
     inkscape:pageopacity="0.0"
     inkscape:pageshadow="2"
     inkscape:zoom="0.98994949"
     inkscape:cx="409.69452"
     inkscape:cy="138.12027"
     inkscape:document-units="px"
     inkscape:current-layer="layer1"
     showgrid="false"
     fit-margin-top="0"
     fit-margin-left="0"
     fit-margin-right="0"
     fit-margin-bottom="0"
     inkscape:window-width="1309"
     inkscape:window-height="744"
     inkscape:window-x="57"
     inkscape:window-y="24"
     inkscape:window-maximized="1" />
  <metadata
     id="metadata7">
    <rdf:RDF>
      <cc:Work
         rdf:about="">
        <dc:format>image/svg+xml</dc:format>
        <dc:type
           rdf:resource="http://purl.org/dc/dcmitype/StillImage" />
        <dc:title></dc:title>
      </cc:Work>
    </rdf:RDF>
  </metadata>
  <g
     inkscape:label="Layer 1"
     inkscape:groupmode="layer"
     id="layer1"
     transform="translate(-8.79912,-404.59375)">
    <path
       sodipodi:type="arc"
       style="fill:#ffffff;fill-opacity:1;fill-rule:nonzero;stroke:#4b180d;stroke-width:9.80000019;stroke-miterlimit:4;stroke-opacity:1;stroke-dasharray:29.4, 9.8;stroke-dashoffset:0"
       id="path2985"
       sodipodi:cx="304.28571"
       sodipodi:cy="496.64789"
       sodipodi:rx="87.14286"
       sodipodi:ry="87.14286"
       d="m 391.42857,496.64789 c 0,48.12767 -39.01519,87.14286 -87.14286,87.14286 -48.12768,0 -87.14286,-39.01519 -87.14286,-87.14286 0,-48.12767 39.01518,-87.14286 87.14286,-87.14286 48.12767,0 87.14286,39.01519 87.14286,87.14286 z"
       inkscape:export-filename="/home/joaolopes/joaolopes/img/list-dash.png"
       inkscape:export-xdpi="7.8221016"
       inkscape:export-ydpi="7.8221016" />
    <path
       d="m 391.42857,496.64789 c 0,48.12767 -39.01519,87.14286 -87.14286,87.14286 -48.12768,0 -87.14286,-39.01519 -87.14286,-87.14286 0,-48.12767 39.01518,-87.14286 87.14286,-87.14286 48.12767,0 87.14286,39.01519 87.14286,87.14286 z"
       sodipodi:ry="87.14286"
       sodipodi:rx="87.14286"
       sodipodi:cy="496.64789"
       sodipodi:cx="304.28571"
       id="path3755"
       style="fill:#ffffff;fill-opacity:1;stroke:#4b180d;stroke-width:19.85280418;stroke-miterlimit:4;stroke-opacity:1;stroke-dasharray:59.55841367, 19.85280456;stroke-dashoffset:0"
       sodipodi:type="arc"
       transform="matrix(0.50370717,0,0,0.50370717,151.01481,246.48279)"
       inkscape:export-filename="/home/joaolopes/joaolopes/img/list-dash.png"
       inkscape:export-xdpi="7.8221016"
       inkscape:export-ydpi="7.8221016" />
    <path
       transform="translate(-207.85713,8.5044867e-6)"
       sodipodi:type="arc"
       style="fill:#4b180d;fill-opacity:1;fill-rule:nonzero;stroke:#4b180d;stroke-opacity:1"
       id="path2985-1"
       sodipodi:cx="304.28571"
       sodipodi:cy="496.64789"
       sodipodi:rx="87.14286"
       sodipodi:ry="87.14286"
       d="m 391.42857,496.64789 c 0,48.12767 -39.01519,87.14286 -87.14286,87.14286 -48.12768,0 -87.14286,-39.01519 -87.14286,-87.14286 0,-48.12767 39.01518,-87.14286 87.14286,-87.14286 48.12767,0 87.14286,39.01519 87.14286,87.14286 z" />
    <path
       d="m 391.42857,496.64789 c 0,48.12767 -39.01519,87.14286 -87.14286,87.14286 -48.12768,0 -87.14286,-39.01519 -87.14286,-87.14286 0,-48.12767 39.01518,-87.14286 87.14286,-87.14286 48.12767,0 87.14286,39.01519 87.14286,87.14286 z"
       sodipodi:ry="87.14286"
       sodipodi:rx="87.14286"
       sodipodi:cy="496.64789"
       sodipodi:cx="304.28571"
       id="path3755-2"
       style="fill:#ffffff;fill-opacity:1;fill-rule:nonzero;stroke:#4b180d;stroke-opacity:1"
       sodipodi:type="arc"
       transform="matrix(0.63485471,0,0,0.63485471,-96.748641,181.34865)" />
    <path
       d="m 391.42857,496.64789 c 0,48.12767 -39.01519,87.14286 -87.14286,87.14286 -48.12768,0 -87.14286,-39.01519 -87.14286,-87.14286 0,-48.12767 39.01518,-87.14286 87.14286,-87.14286 48.12767,0 87.14286,39.01519 87.14286,87.14286 z"
       sodipodi:ry="87.14286"
       sodipodi:rx="87.14286"
       sodipodi:cy="496.64789"
       sodipodi:cx="304.28571"
       id="path3759"
       style="fill:#4b180d;fill-opacity:1;fill-rule:nonzero;stroke:#4b180d;stroke-width:1;stroke-opacity:1"
       sodipodi:type="arc"
       transform="matrix(0.27550537,0,0,0.27550537,12.596231,359.81874)" />
  </g>
</svg>
