<?xml version="1.0" encoding="UTF-8" standalone="no"?>
<!-- Created with Inkscape (http://www.inkscape.org/) -->

<svg
   xmlns:dc="http://purl.org/dc/elements/1.1/"
   xmlns:cc="http://creativecommons.org/ns#"
   xmlns:rdf="http://www.w3.org/1999/02/22-rdf-syntax-ns#"
   xmlns:svg="http://www.w3.org/2000/svg"
   xmlns="http://www.w3.org/2000/svg"
   xmlns:sodipodi="http://sodipodi.sourceforge.net/DTD/sodipodi-0.dtd"
   xmlns:inkscape="http://www.inkscape.org/namespaces/inkscape"
   width="744.09448819"
   height="1052.3622047"
   id="svg2"
   version="1.1"
   inkscape:version="0.48.4 r9939"
   sodipodi:docname="joaolopes.svg"
   inkscape:export-filename="/home/joaolopes/joaolopes/img/joaolopes.png"
   inkscape:export-xdpi="90"
   inkscape:export-ydpi="90">
  <defs
     id="defs4">
    <filter
       inkscape:collect="always"
       id="filter3953">
      <feGaussianBlur
         inkscape:collect="always"
         stdDeviation="0.43649922"
         id="feGaussianBlur3955" />
    </filter>
  </defs>
  <sodipodi:namedview
     id="base"
     pagecolor="#ffffff"
     bordercolor="#666666"
     borderopacity="1.0"
     inkscape:pageopacity="0.0"
     inkscape:pageshadow="2"
     inkscape:zoom="2.1393937"
     inkscape:cx="173.04756"
     inkscape:cy="508.31894"
     inkscape:document-units="px"
     inkscape:current-layer="layer1"
     showgrid="false"
     inkscape:window-width="1309"
     inkscape:window-height="744"
     inkscape:window-x="57"
     inkscape:window-y="24"
     inkscape:window-maximized="1" />
  <metadata
     id="metadata7">
    <rdf:RDF>
      <cc:Work
         rdf:about="">
        <dc:format>image/svg+xml</dc:format>
        <dc:type
           rdf:resource="http://purl.org/dc/dcmitype/StillImage" />
        <dc:title></dc:title>
      </cc:Work>
    </rdf:RDF>
  </metadata>
  <g
     inkscape:label="Layer 1"
     inkscape:groupmode="layer"
     id="layer1">
    <g
       id="g3135"
       transform="translate(0.66103475,0.66103475)"
       style="opacity:0.50000000000000000;filter:url(#filter3953)">
      <path
         sodipodi:nodetypes="ccccccccc"
         inkscape:connector-curvature="0"
         id="path3137"
         style="font-size:40px;font-style:italic;font-variant:normal;font-weight:normal;font-stretch:normal;line-height:125%;letter-spacing:0px;word-spacing:0px;fill:#000000;fill-opacity:1;stroke:none;font-family:Trebuchet MS;-inkscape-font-specification:Trebuchet MS Italic"
         d="m 122.08752,524.64633 c 0.25058,0 0.4647,0.0888 0.64239,0.26652 0.17768,0.17769 0.26652,0.39181 0.26653,0.64238 -1e-5,0.25059 -0.0888,0.46472 -0.26653,0.64239 -0.17769,0.17314 -0.39181,0.2597 -0.64239,0.25969 -0.25057,10e-6 -0.4647,-0.0865 -0.64238,-0.25969 -0.17769,-0.17767 -0.26652,-0.3918 -0.26652,-0.64239 0,-0.25057 0.0888,-0.46469 0.26652,-0.64238 0.17768,-0.17767 0.39181,-0.26652 0.64238,-0.26652" />
      <path
         inkscape:connector-curvature="0"
         id="path3139"
         style="font-size:40px;font-style:italic;font-variant:normal;font-weight:normal;font-stretch:normal;line-height:125%;letter-spacing:0px;word-spacing:0px;fill:#000000;fill-opacity:1;stroke:none;font-family:Trebuchet MS;-inkscape-font-specification:Trebuchet MS Italic"
         d="m 124.68471,547.52405 c 0,-3.73697 1.09375,-6.94009 3.28125,-9.60938 2.18749,-2.66925 4.96744,-4.00388 8.33984,-4.0039 2.53905,2e-5 4.47915,0.69012 5.82031,2.07031 1.34113,1.3672 2.0117,3.31382 2.01172,5.83984 -2e-5,2.00522 -0.40366,4.08855 -1.21093,6.25 -0.79429,2.16147 -2.10289,3.95834 -3.92579,5.39063 -1.80991,1.43229 -3.98438,2.14843 -6.52343,2.14844 -2.51303,-1e-5 -4.44011,-0.70313 -5.78125,-2.10938 -1.34115,-1.41927 -2.01172,-3.41145 -2.01172,-5.97656 m 1.45228,0.35128 c -1e-5,4.34572 2.10201,6.51857 6.30603,6.51857 3.12985,0 5.61152,-1.31493 7.44502,-3.94481 1.85195,-2.62987 2.77795,-5.66866 2.77798,-9.11638 -3e-5,-4.13722 -2.10204,-6.20584 -6.30603,-6.20586 -2.12981,2e-5 -4.00958,0.65749 -5.63933,1.9724 -1.61124,1.31497 -2.77799,2.99872 -3.50025,5.0513 -0.72229,2.05259 -1.08343,3.96086 -1.08342,5.72478"
         sodipodi:nodetypes="cscccccscccsccccsc" />
      <path
         inkscape:connector-curvature="0"
         id="path3141"
         style="font-size:40px;font-style:italic;font-variant:normal;font-weight:normal;font-stretch:normal;line-height:125%;letter-spacing:0px;word-spacing:0px;fill:#000000;fill-opacity:1;stroke:none;font-family:Trebuchet MS;-inkscape-font-specification:Trebuchet MS Italic"
         d="m 165.29018,535.60999 -2.5586,12.16796 c -0.10418,0.4948 -0.15627,1.09376 -0.15625,1.79688 -2e-5,2.03125 0.31899,3.91276 0.95703,5.64453 l -1.15981,0 c -0.20835,-0.41667 -0.98476,-2.96026 -0.83934,-5.84875 -1.60527,2.75794 -2.83808,4.57578 -5.18835,5.55578 -1.21094,0.45573 -2.49349,0.68359 -3.84765,0.6836 -2.0573,-1e-5 -3.66537,-0.60547 -4.82422,-1.81641 -1.14584,-1.22396 -1.71875,-2.97526 -1.71875,-5.25391 0,-3.82811 1.1263,-7.22004 3.37891,-10.17578 2.26561,-2.96873 5.17577,-4.4531 8.73046,-4.45312 3.35936,2e-5 5.76821,0.56642 7.22657,1.69922 m -1.38468,0.75567 c -2.21285,-0.92529 -3.01114,-1.19993 -5.22712,-1.23881 -3.07598,2e-5 -5.78203,1.34703 -8.11818,4.04103 -2.33618,2.69403 -3.50426,6.06156 -3.50424,10.10258 -2e-5,3.41564 1.84945,5.12344 5.54839,5.12344 1.92732,0 3.73785,-0.81782 5.43158,-2.45348 1.6937,-1.65169 2.87152,-3.76039 3.53345,-6.32613 l 2.33612,-9.24863"
         sodipodi:nodetypes="cccccccccscccccsssccc" />
      <path
         inkscape:connector-curvature="0"
         id="path3143"
         style="font-size:40px;font-style:italic;font-variant:normal;font-weight:normal;font-stretch:normal;line-height:125%;letter-spacing:0px;word-spacing:0px;fill:#000000;fill-opacity:1;stroke:none;font-family:Trebuchet MS;-inkscape-font-specification:Trebuchet MS Italic"
         d="m 167.18471,547.52405 c 0,-3.73697 1.09375,-6.94009 3.28125,-9.60938 2.18749,-2.66925 4.96744,-4.00388 8.33984,-4.0039 2.53905,2e-5 4.47915,0.69012 5.82031,2.07031 1.34113,1.3672 2.0117,3.31382 2.01172,5.83984 -2e-5,2.00522 -0.40366,4.08855 -1.21093,6.25 -0.79429,2.16147 -2.10289,3.95834 -3.92579,5.39063 -1.80991,1.43229 -3.98438,2.14843 -6.52343,2.14844 -2.51303,-1e-5 -4.44011,-0.70313 -5.78125,-2.10938 -1.34115,-1.41927 -2.01172,-3.41145 -2.01172,-5.97656 m 1.16014,0.40796 c -1e-5,4.42479 2.17631,6.63717 6.52894,6.63717 3.24049,0 5.80988,-1.33885 7.70819,-4.01658 1.91742,-2.67772 2.87615,-5.7718 2.87618,-9.28225 -3e-5,-4.21251 -2.17634,-6.31876 -6.52894,-6.31878 -2.2051,2e-5 -4.15131,0.66945 -5.83867,2.00829 -1.6682,1.33889 -2.87619,3.05328 -3.62398,5.1432 -0.74782,2.08994 -1.12173,4.03293 -1.12172,5.82895"
         sodipodi:nodetypes="cscccccscccsccccsc" />
      <path
         inkscape:connector-curvature="0"
         id="path3145"
         style="font-size:40px;font-style:italic;font-variant:normal;font-weight:normal;font-stretch:normal;line-height:125%;letter-spacing:0px;word-spacing:0px;fill:#000000;fill-opacity:1;stroke:none;font-family:Trebuchet MS;-inkscape-font-specification:Trebuchet MS Italic"
         d="m 196.37987,549.36848 1.11175,0.19059 c -0.89872,3.78067 -2.61486,5.33628 -4.80113,4.887 -2.18627,-0.44928 -2.95546,-2.10192 -2.36196,-5.64635 0.15482,-0.92462 0.0918,-0.86551 0.74286,-4.1077 l 6.88992,-36.31701 1.3883,0 -6.71413,35.16466 c -0.7422,3.69793 -0.86702,4.07897 -0.9935,5.0079 -0.37175,2.73029 0.11274,4.19845 1.48951,4.41331 1.37677,0.21486 2.13771,-0.86293 3.0222,-3.61423"
         sodipodi:nodetypes="cczsccccszc" />
      <path
         inkscape:connector-curvature="0"
         id="path3147"
         style="font-size:40px;font-style:italic;font-variant:normal;font-weight:normal;font-stretch:normal;line-height:125%;letter-spacing:0px;word-spacing:0px;fill:#000000;fill-opacity:1;stroke:none;font-family:Trebuchet MS;-inkscape-font-specification:Trebuchet MS Italic"
         d="m 201.48158,547.52405 c 0,-3.73697 1.09375,-6.94009 3.28125,-9.60938 2.1875,-2.66925 4.96744,-4.00388 8.33985,-4.0039 2.53904,2e-5 4.47915,0.69012 5.82031,2.07031 1.34112,1.3672 2.0117,3.31382 2.01172,5.83984 -2e-5,2.00522 -0.40367,4.08855 -1.21094,6.25 -0.79429,2.16147 -2.10288,3.95834 -3.92578,5.39063 -1.80991,1.43229 -3.98439,2.14843 -6.52344,2.14844 -2.51303,-1e-5 -4.44011,-0.70313 -5.78125,-2.10938 -1.34115,-1.41927 -2.01172,-3.41145 -2.01172,-5.97656 m 1.10172,0.42685 c 0,4.45115 2.19116,6.67671 6.57353,6.67671 3.26261,0 5.84955,-1.34683 7.7608,-4.04051 1.93053,-2.69367 2.8958,-5.80618 2.89583,-9.33754 -3e-5,-4.2376 -2.19119,-6.3564 -6.57353,-6.35642 -2.22014,2e-5 -4.17965,0.67344 -5.87852,2.02025 -1.67959,1.34687 -2.89583,3.07147 -3.64874,5.17385 -0.75292,2.10238 -1.12937,4.05694 -1.12937,5.86366"
         sodipodi:nodetypes="cscccccscccsccccsc" />
      <path
         inkscape:connector-curvature="0"
         id="path3149"
         style="font-size:40px;font-style:italic;font-variant:normal;font-weight:normal;font-stretch:normal;line-height:125%;letter-spacing:0px;word-spacing:0px;fill:#000000;fill-opacity:1;stroke:none;font-family:Trebuchet MS;-inkscape-font-specification:Trebuchet MS Italic"
         d="m 225.93774,554.16467 -5.61371,28.75349 -1.3555,0 8.07465,-42.36677 c 0.18229,-1.00259 0.27343,-1.98566 0.27344,-2.94922 -1e-5,-0.98956 -0.0977,-1.9531 -0.29297,-2.89062 l 1.08582,-0.70313 c 0.0651,0.16929 0.18228,1.06122 0.35156,2.67578 1.90267,-1.52012 4.38407,-2.65191 6.79008,-2.67578 2.60415,2e-5 4.55077,0.64455 5.83985,1.9336 1.30206,1.28908 1.9531,3.22918 1.95312,5.82031 -2e-5,3.95834 -1.10028,7.27214 -3.30078,9.94141 -2.18751,2.66927 -5.06512,4.0039 -8.63281,4.0039 -0.76824,0 -1.65365,-0.14974 -2.65625,-0.44922 -0.98959,-0.29948 -2.26911,-0.66406 -2.5165,-1.09375 m 0.2015,-1.45036 c 0.30217,0.52067 1.47,0.90155 2.39337,1.2595 0.92333,0.35798 1.78793,0.53695 2.59378,0.53695 3.50872,0 6.21162,-1.14709 8.10871,-3.4413 1.91384,-2.31047 2.87076,-5.45888 2.87079,-9.44528 -3e-5,-2.14773 -0.56243,-3.75042 -1.68722,-4.80805 -1.10804,-1.07386 -2.77848,-1.6108 -5.01128,-1.61083 -0.97374,3e-5 -2.10695,0.33359 -3.39962,1.00066 -1.27592,0.65086 -2.94205,1.39268 -3.47926,2.10858 l -2.38927,14.39977"
         sodipodi:nodetypes="ccccccccccccsccccsccccccc" />
      <path
         inkscape:connector-curvature="0"
         id="path3151"
         style="font-size:40px;font-style:italic;font-variant:normal;font-weight:normal;font-stretch:normal;line-height:125%;letter-spacing:0px;word-spacing:0px;fill:#000000;fill-opacity:1;stroke:none;font-family:Trebuchet MS;-inkscape-font-specification:Trebuchet MS Italic"
         d="m 247.05747,545.18318 c -0.076,0.93231 -0.22151,1.96352 -0.0252,3.54308 0.19624,1.57955 0.53848,2.81833 1.76359,4.06772 1.22511,1.2494 3.06279,1.64687 5.14052,1.64687 2.07772,0 2.96906,-0.36044 5.52486,-1.05505 l -0.0109,1.18903 c -2.08334,0.6901 -3.92579,1.03515 -5.52734,1.03516 -5.39063,-1e-5 -8.08594,-3.02084 -8.08594,-9.0625 0,-3.55468 1.13281,-6.54947 3.39844,-8.98438 2.26562,-2.43488 5.11718,-3.65232 8.55469,-3.65234 2.07029,2e-5 3.72394,0.44273 4.96093,1.32812 1.23696,0.88544 1.85545,2.14846 1.85547,3.78906 -2e-5,2.27866 -0.96356,4.07554 -2.89062,5.39063 -1.9271,1.31511 -4.29038,1.97266 -7.08985,1.97266 -1.87501,0 -5.92233,-0.26511 -7.56134,-1.21536 m 0.11286,-1.13689 c 1.57083,0.72279 3.53754,1.20103 5.66645,1.20102 3.22431,10e-6 5.74273,-0.4438 7.78895,-1.50671 2.0462,-1.08414 2.89402,-2.86173 2.89405,-4.92379 0.0292,-2.08885 -1.84452,-3.42546 -5.21212,-3.68839 -5.337,-0.4167 -10.06113,2.81683 -11.13733,8.91787"
         sodipodi:nodetypes="czzzccssscccsscccccsc" />
      <path
         inkscape:connector-curvature="0"
         id="path3153"
         style="font-size:40px;font-style:italic;font-variant:normal;font-weight:normal;font-stretch:normal;line-height:125%;letter-spacing:0px;word-spacing:0px;fill:#000000;fill-opacity:1;stroke:none;font-family:Trebuchet MS;-inkscape-font-specification:Trebuchet MS Italic"
         d="m 265.46596,553.96936 0.31222,-0.89832 c 1.30861,0.64591 1.74331,1.02155 3.11124,1.32126 1.36793,0.29971 2.52359,0.44447 3.76555,0.34257 1.24197,-0.10225 2.86712,-0.60199 3.90091,-1.39696 1.03377,-0.79497 2.17876,-2.3488 2.35404,-3.4925 0.17528,-1.1437 0.34564,-2.29184 -0.25911,-3.29469 -0.60475,-1.00285 -2.41363,-1.71297 -4.12768,-2.03457 -1.71406,-0.3216 -5.0651,-1.2949 -6.46188,-2.72364 -1.39678,-1.42874 -1.39283,-2.41587 -1.37322,-3.21073 0.0196,-0.79487 0.41021,-1.75161 1.30378,-2.46005 0.89356,-0.70845 1.37835,-0.93186 3.04048,-1.29925 1.66213,-0.36739 3.20808,-0.21808 4.53664,-0.0128 1.32855,0.20543 3.30584,1.06417 4.80443,2.07193 l -0.49385,0.68414 c -1.95153,-1.49821 -4.17635,-2.08207 -6.42655,-2.08208 -1.49352,1e-5 -2.99447,0.28332 -4.08969,0.93253 -1.07535,0.6326 -1.73695,1.63855 -1.73694,2.68728 -10e-6,0.76578 0.4739,1.46466 1.09124,2.01399 0.61731,0.54937 1.81967,1.36197 3.52662,1.84782 1.70695,0.48586 3.65663,0.84077 4.80782,1.35793 1.15119,0.51716 1.7938,1.12514 2.23256,1.79455 0.44323,0.67623 0.71262,1.38054 0.71264,2.22689 -2e-5,2.23959 -0.81382,4.01042 -2.44141,5.3125 -1.61459,1.30208 -3.67188,1.95312 -6.17187,1.95313 -2.20053,-10e-6 -4.17318,-0.54688 -5.91797,-1.64063"
         sodipodi:nodetypes="cczzczzzzzzzzcccccczzsccsc" />
      <g
         style="font-size:40px;font-style:normal;font-weight:normal;line-height:125%;letter-spacing:0px;word-spacing:0px;fill:#000000;fill-opacity:1;stroke:none;font-family:Sans"
         id="g3155"
         transform="translate(-4.6272433,15.544341)">
        <path
           d="m 156.0153,512.41466 c 0.22135,-1.22394 0.79427,-2.26561 1.71875,-3.125 0.9375,-0.85936 1.97265,-1.28904 3.10547,-1.28906 2.75948,0.0625 4.2434,4.19139 6.55444,4.43165 2.31104,0.24027 3.6604,-3.84571 3.6604,-3.84571 l 0.95704,0.33203 c 0,0 -0.93994,2.40236 -1.79688,3.30078 -0.86436,0.9062 -1.85548,1.34767 -2.94922,1.34766 -2.74375,0.15021 -3.83199,-4.20832 -6.53215,-4.37983 -2.70016,-0.17151 -3.9044,3.60932 -3.9366,3.61811 l -0.78125,-0.39063"
           style="font-style:italic;font-variant:normal;font-stretch:normal;font-family:Trebuchet MS;-inkscape-font-specification:Trebuchet MS Italic"
           id="path3157"
           inkscape:connector-curvature="0"
           sodipodi:nodetypes="ccczccsczcc" />
      </g>
      <path
         d="m 105.71317,575.78901 0.91816,0.0851 c 0.0268,0.0374 -0.37736,3.75084 1.96455,3.95043 2.34192,0.19959 3.10618,-3.90258 3.10618,-3.90258 0,0 8.02213,-41.60868 8.01795,-41.6206 l 1.31335,0 -7.74262,41.40576 c -0.31917,1.14205 -1.00912,5.62273 -4.69497,5.49949 -3.68585,-0.12324 -3.06852,-5.45888 -3.06852,-5.45888 z"
         style="font-size:40px;font-style:italic;font-variant:normal;font-weight:normal;font-stretch:normal;line-height:125%;letter-spacing:0px;word-spacing:0px;fill:#000000;fill-opacity:1;stroke:none;font-family:Trebuchet MS;-inkscape-font-specification:Trebuchet MS Italic"
         id="path3159"
         inkscape:connector-curvature="0"
         sodipodi:nodetypes="cczcccczcc" />
    </g>
    <g
       id="g3075"
       style="fill:#2b2b2b;fill-opacity:1;opacity:0.77777778">
      <path
         d="m 122.08752,524.64633 c 0.25058,0 0.4647,0.0888 0.64239,0.26652 0.17768,0.17769 0.26652,0.39181 0.26653,0.64238 -1e-5,0.25059 -0.0888,0.46472 -0.26653,0.64239 -0.17769,0.17314 -0.39181,0.2597 -0.64239,0.25969 -0.25057,10e-6 -0.4647,-0.0865 -0.64238,-0.25969 -0.17769,-0.17767 -0.26652,-0.3918 -0.26652,-0.64239 0,-0.25057 0.0888,-0.46469 0.26652,-0.64238 0.17768,-0.17767 0.39181,-0.26652 0.64238,-0.26652"
         style="font-size:40px;font-style:italic;font-variant:normal;font-weight:normal;font-stretch:normal;line-height:125%;letter-spacing:0px;word-spacing:0px;fill:#2b2b2b;fill-opacity:1;stroke:none;font-family:Trebuchet MS;-inkscape-font-specification:Trebuchet MS Italic"
         id="path3028"
         inkscape:connector-curvature="0"
         sodipodi:nodetypes="ccccccccc" />
      <path
         sodipodi:nodetypes="cscccccscccsccccsc"
         d="m 124.68471,547.52405 c 0,-3.73697 1.09375,-6.94009 3.28125,-9.60938 2.18749,-2.66925 4.96744,-4.00388 8.33984,-4.0039 2.53905,2e-5 4.47915,0.69012 5.82031,2.07031 1.34113,1.3672 2.0117,3.31382 2.01172,5.83984 -2e-5,2.00522 -0.40366,4.08855 -1.21093,6.25 -0.79429,2.16147 -2.10289,3.95834 -3.92579,5.39063 -1.80991,1.43229 -3.98438,2.14843 -6.52343,2.14844 -2.51303,-1e-5 -4.44011,-0.70313 -5.78125,-2.10938 -1.34115,-1.41927 -2.01172,-3.41145 -2.01172,-5.97656 m 1.45228,0.35128 c -1e-5,4.34572 2.10201,6.51857 6.30603,6.51857 3.12985,0 5.61152,-1.31493 7.44502,-3.94481 1.85195,-2.62987 2.77795,-5.66866 2.77798,-9.11638 -3e-5,-4.13722 -2.10204,-6.20584 -6.30603,-6.20586 -2.12981,2e-5 -4.00958,0.65749 -5.63933,1.9724 -1.61124,1.31497 -2.77799,2.99872 -3.50025,5.0513 -0.72229,2.05259 -1.08343,3.96086 -1.08342,5.72478"
         style="font-size:40px;font-style:italic;font-variant:normal;font-weight:normal;font-stretch:normal;line-height:125%;letter-spacing:0px;word-spacing:0px;fill:#2b2b2b;fill-opacity:1;stroke:none;font-family:Trebuchet MS;-inkscape-font-specification:Trebuchet MS Italic"
         id="path3030"
         inkscape:connector-curvature="0" />
      <path
         sodipodi:nodetypes="cccccccccscccccsssccc"
         d="m 165.29018,535.60999 -2.5586,12.16796 c -0.10418,0.4948 -0.15627,1.09376 -0.15625,1.79688 -2e-5,2.03125 0.31899,3.91276 0.95703,5.64453 l -1.15981,0 c -0.20835,-0.41667 -0.98476,-2.96026 -0.83934,-5.84875 -1.60527,2.75794 -2.83808,4.57578 -5.18835,5.55578 -1.21094,0.45573 -2.49349,0.68359 -3.84765,0.6836 -2.0573,-1e-5 -3.66537,-0.60547 -4.82422,-1.81641 -1.14584,-1.22396 -1.71875,-2.97526 -1.71875,-5.25391 0,-3.82811 1.1263,-7.22004 3.37891,-10.17578 2.26561,-2.96873 5.17577,-4.4531 8.73046,-4.45312 3.35936,2e-5 5.76821,0.56642 7.22657,1.69922 m -1.38468,0.75567 c -2.21285,-0.92529 -3.01114,-1.19993 -5.22712,-1.23881 -3.07598,2e-5 -5.78203,1.34703 -8.11818,4.04103 -2.33618,2.69403 -3.50426,6.06156 -3.50424,10.10258 -2e-5,3.41564 1.84945,5.12344 5.54839,5.12344 1.92732,0 3.73785,-0.81782 5.43158,-2.45348 1.6937,-1.65169 2.87152,-3.76039 3.53345,-6.32613 l 2.33612,-9.24863"
         style="font-size:40px;font-style:italic;font-variant:normal;font-weight:normal;font-stretch:normal;line-height:125%;letter-spacing:0px;word-spacing:0px;fill:#2b2b2b;fill-opacity:1;stroke:none;font-family:Trebuchet MS;-inkscape-font-specification:Trebuchet MS Italic"
         id="path3032"
         inkscape:connector-curvature="0" />
      <path
         sodipodi:nodetypes="cscccccscccsccccsc"
         d="m 167.18471,547.52405 c 0,-3.73697 1.09375,-6.94009 3.28125,-9.60938 2.18749,-2.66925 4.96744,-4.00388 8.33984,-4.0039 2.53905,2e-5 4.47915,0.69012 5.82031,2.07031 1.34113,1.3672 2.0117,3.31382 2.01172,5.83984 -2e-5,2.00522 -0.40366,4.08855 -1.21093,6.25 -0.79429,2.16147 -2.10289,3.95834 -3.92579,5.39063 -1.80991,1.43229 -3.98438,2.14843 -6.52343,2.14844 -2.51303,-1e-5 -4.44011,-0.70313 -5.78125,-2.10938 -1.34115,-1.41927 -2.01172,-3.41145 -2.01172,-5.97656 m 1.16014,0.40796 c -1e-5,4.42479 2.17631,6.63717 6.52894,6.63717 3.24049,0 5.80988,-1.33885 7.70819,-4.01658 1.91742,-2.67772 2.87615,-5.7718 2.87618,-9.28225 -3e-5,-4.21251 -2.17634,-6.31876 -6.52894,-6.31878 -2.2051,2e-5 -4.15131,0.66945 -5.83867,2.00829 -1.6682,1.33889 -2.87619,3.05328 -3.62398,5.1432 -0.74782,2.08994 -1.12173,4.03293 -1.12172,5.82895"
         style="font-size:40px;font-style:italic;font-variant:normal;font-weight:normal;font-stretch:normal;line-height:125%;letter-spacing:0px;word-spacing:0px;fill:#2b2b2b;fill-opacity:1;stroke:none;font-family:Trebuchet MS;-inkscape-font-specification:Trebuchet MS Italic"
         id="path3034"
         inkscape:connector-curvature="0" />
      <path
         sodipodi:nodetypes="cczsccccszc"
         d="m 196.37987,549.36848 1.11175,0.19059 c -0.89872,3.78067 -2.61486,5.33628 -4.80113,4.887 -2.18627,-0.44928 -2.95546,-2.10192 -2.36196,-5.64635 0.15482,-0.92462 0.0918,-0.86551 0.74286,-4.1077 l 6.88992,-36.31701 1.3883,0 -6.71413,35.16466 c -0.7422,3.69793 -0.86702,4.07897 -0.9935,5.0079 -0.37175,2.73029 0.11274,4.19845 1.48951,4.41331 1.37677,0.21486 2.13771,-0.86293 3.0222,-3.61423"
         style="font-size:40px;font-style:italic;font-variant:normal;font-weight:normal;font-stretch:normal;line-height:125%;letter-spacing:0px;word-spacing:0px;fill:#2b2b2b;fill-opacity:1;stroke:none;font-family:Trebuchet MS;-inkscape-font-specification:Trebuchet MS Italic"
         id="path3036"
         inkscape:connector-curvature="0" />
      <path
         sodipodi:nodetypes="cscccccscccsccccsc"
         d="m 201.48158,547.52405 c 0,-3.73697 1.09375,-6.94009 3.28125,-9.60938 2.1875,-2.66925 4.96744,-4.00388 8.33985,-4.0039 2.53904,2e-5 4.47915,0.69012 5.82031,2.07031 1.34112,1.3672 2.0117,3.31382 2.01172,5.83984 -2e-5,2.00522 -0.40367,4.08855 -1.21094,6.25 -0.79429,2.16147 -2.10288,3.95834 -3.92578,5.39063 -1.80991,1.43229 -3.98439,2.14843 -6.52344,2.14844 -2.51303,-1e-5 -4.44011,-0.70313 -5.78125,-2.10938 -1.34115,-1.41927 -2.01172,-3.41145 -2.01172,-5.97656 m 1.10172,0.42685 c 0,4.45115 2.19116,6.67671 6.57353,6.67671 3.26261,0 5.84955,-1.34683 7.7608,-4.04051 1.93053,-2.69367 2.8958,-5.80618 2.89583,-9.33754 -3e-5,-4.2376 -2.19119,-6.3564 -6.57353,-6.35642 -2.22014,2e-5 -4.17965,0.67344 -5.87852,2.02025 -1.67959,1.34687 -2.89583,3.07147 -3.64874,5.17385 -0.75292,2.10238 -1.12937,4.05694 -1.12937,5.86366"
         style="font-size:40px;font-style:italic;font-variant:normal;font-weight:normal;font-stretch:normal;line-height:125%;letter-spacing:0px;word-spacing:0px;fill:#2b2b2b;fill-opacity:1;stroke:none;font-family:Trebuchet MS;-inkscape-font-specification:Trebuchet MS Italic"
         id="path3038"
         inkscape:connector-curvature="0" />
      <path
         sodipodi:nodetypes="ccccccccccccsccccsccccccc"
         d="m 225.93774,554.16467 -5.61371,28.75349 -1.3555,0 8.07465,-42.36677 c 0.18229,-1.00259 0.27343,-1.98566 0.27344,-2.94922 -1e-5,-0.98956 -0.0977,-1.9531 -0.29297,-2.89062 l 1.08582,-0.70313 c 0.0651,0.16929 0.18228,1.06122 0.35156,2.67578 1.90267,-1.52012 4.38407,-2.65191 6.79008,-2.67578 2.60415,2e-5 4.55077,0.64455 5.83985,1.9336 1.30206,1.28908 1.9531,3.22918 1.95312,5.82031 -2e-5,3.95834 -1.10028,7.27214 -3.30078,9.94141 -2.18751,2.66927 -5.06512,4.0039 -8.63281,4.0039 -0.76824,0 -1.65365,-0.14974 -2.65625,-0.44922 -0.98959,-0.29948 -2.26911,-0.66406 -2.5165,-1.09375 m 0.2015,-1.45036 c 0.30217,0.52067 1.47,0.90155 2.39337,1.2595 0.92333,0.35798 1.78793,0.53695 2.59378,0.53695 3.50872,0 6.21162,-1.14709 8.10871,-3.4413 1.91384,-2.31047 2.87076,-5.45888 2.87079,-9.44528 -3e-5,-2.14773 -0.56243,-3.75042 -1.68722,-4.80805 -1.10804,-1.07386 -2.77848,-1.6108 -5.01128,-1.61083 -0.97374,3e-5 -2.10695,0.33359 -3.39962,1.00066 -1.27592,0.65086 -2.94205,1.39268 -3.47926,2.10858 l -2.38927,14.39977"
         style="font-size:40px;font-style:italic;font-variant:normal;font-weight:normal;font-stretch:normal;line-height:125%;letter-spacing:0px;word-spacing:0px;fill:#2b2b2b;fill-opacity:1;stroke:none;font-family:Trebuchet MS;-inkscape-font-specification:Trebuchet MS Italic"
         id="path3040"
         inkscape:connector-curvature="0" />
      <path
         sodipodi:nodetypes="czzzccssscccsscccccsc"
         d="m 247.05747,545.18318 c -0.076,0.93231 -0.22151,1.96352 -0.0252,3.54308 0.19624,1.57955 0.53848,2.81833 1.76359,4.06772 1.22511,1.2494 3.06279,1.64687 5.14052,1.64687 2.07772,0 2.96906,-0.36044 5.52486,-1.05505 l -0.0109,1.18903 c -2.08334,0.6901 -3.92579,1.03515 -5.52734,1.03516 -5.39063,-1e-5 -8.08594,-3.02084 -8.08594,-9.0625 0,-3.55468 1.13281,-6.54947 3.39844,-8.98438 2.26562,-2.43488 5.11718,-3.65232 8.55469,-3.65234 2.07029,2e-5 3.72394,0.44273 4.96093,1.32812 1.23696,0.88544 1.85545,2.14846 1.85547,3.78906 -2e-5,2.27866 -0.96356,4.07554 -2.89062,5.39063 -1.9271,1.31511 -4.29038,1.97266 -7.08985,1.97266 -1.87501,0 -5.92233,-0.26511 -7.56134,-1.21536 m 0.11286,-1.13689 c 1.57083,0.72279 3.53754,1.20103 5.66645,1.20102 3.22431,10e-6 5.74273,-0.4438 7.78895,-1.50671 2.0462,-1.08414 2.89402,-2.86173 2.89405,-4.92379 0.0292,-2.08885 -1.84452,-3.42546 -5.21212,-3.68839 -5.337,-0.4167 -10.06113,2.81683 -11.13733,8.91787"
         style="font-size:40px;font-style:italic;font-variant:normal;font-weight:normal;font-stretch:normal;line-height:125%;letter-spacing:0px;word-spacing:0px;fill:#2b2b2b;fill-opacity:1;stroke:none;font-family:Trebuchet MS;-inkscape-font-specification:Trebuchet MS Italic"
         id="path3042"
         inkscape:connector-curvature="0" />
      <path
         sodipodi:nodetypes="cczzczzzzzzzzcccccczzsccsc"
         d="m 265.46596,553.96936 0.31222,-0.89832 c 1.30861,0.64591 1.74331,1.02155 3.11124,1.32126 1.36793,0.29971 2.52359,0.44447 3.76555,0.34257 1.24197,-0.10225 2.86712,-0.60199 3.90091,-1.39696 1.03377,-0.79497 2.17876,-2.3488 2.35404,-3.4925 0.17528,-1.1437 0.34564,-2.29184 -0.25911,-3.29469 -0.60475,-1.00285 -2.41363,-1.71297 -4.12768,-2.03457 -1.71406,-0.3216 -5.0651,-1.2949 -6.46188,-2.72364 -1.39678,-1.42874 -1.39283,-2.41587 -1.37322,-3.21073 0.0196,-0.79487 0.41021,-1.75161 1.30378,-2.46005 0.89356,-0.70845 1.37835,-0.93186 3.04048,-1.29925 1.66213,-0.36739 3.20808,-0.21808 4.53664,-0.0128 1.32855,0.20543 3.30584,1.06417 4.80443,2.07193 l -0.49385,0.68414 c -1.95153,-1.49821 -4.17635,-2.08207 -6.42655,-2.08208 -1.49352,1e-5 -2.99447,0.28332 -4.08969,0.93253 -1.07535,0.6326 -1.73695,1.63855 -1.73694,2.68728 -10e-6,0.76578 0.4739,1.46466 1.09124,2.01399 0.61731,0.54937 1.81967,1.36197 3.52662,1.84782 1.70695,0.48586 3.65663,0.84077 4.80782,1.35793 1.15119,0.51716 1.7938,1.12514 2.23256,1.79455 0.44323,0.67623 0.71262,1.38054 0.71264,2.22689 -2e-5,2.23959 -0.81382,4.01042 -2.44141,5.3125 -1.61459,1.30208 -3.67188,1.95312 -6.17187,1.95313 -2.20053,-10e-6 -4.17318,-0.54688 -5.91797,-1.64063"
         style="font-size:40px;font-style:italic;font-variant:normal;font-weight:normal;font-stretch:normal;line-height:125%;letter-spacing:0px;word-spacing:0px;fill:#2b2b2b;fill-opacity:1;stroke:none;font-family:Trebuchet MS;-inkscape-font-specification:Trebuchet MS Italic"
         id="path3044"
         inkscape:connector-curvature="0" />
      <g
         transform="translate(-4.6272433,15.544341)"
         id="text3055"
         style="font-size:40px;font-style:normal;font-weight:normal;line-height:125%;letter-spacing:0px;word-spacing:0px;fill:#2b2b2b;fill-opacity:1;stroke:none;font-family:Sans">
        <path
           sodipodi:nodetypes="ccczccsczcc"
           inkscape:connector-curvature="0"
           id="path3060"
           style="font-style:italic;font-variant:normal;font-stretch:normal;font-family:Trebuchet MS;-inkscape-font-specification:Trebuchet MS Italic;fill:#2b2b2b;fill-opacity:1"
           d="m 156.0153,512.41466 c 0.22135,-1.22394 0.79427,-2.26561 1.71875,-3.125 0.9375,-0.85936 1.97265,-1.28904 3.10547,-1.28906 2.75948,0.0625 4.2434,4.19139 6.55444,4.43165 2.31104,0.24027 3.6604,-3.84571 3.6604,-3.84571 l 0.95704,0.33203 c 0,0 -0.93994,2.40236 -1.79688,3.30078 -0.86436,0.9062 -1.85548,1.34767 -2.94922,1.34766 -2.74375,0.15021 -3.83199,-4.20832 -6.53215,-4.37983 -2.70016,-0.17151 -3.9044,3.60932 -3.9366,3.61811 l -0.78125,-0.39063" />
      </g>
      <path
         sodipodi:nodetypes="cczcccczcc"
         inkscape:connector-curvature="0"
         id="path3073"
         style="font-size:40px;font-style:italic;font-variant:normal;font-weight:normal;font-stretch:normal;line-height:125%;letter-spacing:0px;word-spacing:0px;fill:#2b2b2b;fill-opacity:1;stroke:none;font-family:Trebuchet MS;-inkscape-font-specification:Trebuchet MS Italic"
         d="m 105.71317,575.78901 0.91816,0.0851 c 0.0268,0.0374 -0.37736,3.75084 1.96455,3.95043 2.34192,0.19959 3.10618,-3.90258 3.10618,-3.90258 0,0 8.02213,-41.60868 8.01795,-41.6206 l 1.31335,0 -7.74262,41.40576 c -0.31917,1.14205 -1.00912,5.62273 -4.69497,5.49949 -3.68585,-0.12324 -3.06852,-5.45888 -3.06852,-5.45888 z" />
    </g>
  </g>
</svg>
