<?xml version="1.0" encoding="UTF-8" standalone="no"?>
<!-- Created with Inkscape (http://www.inkscape.org/) -->

<svg
   xmlns:dc="http://purl.org/dc/elements/1.1/"
   xmlns:cc="http://creativecommons.org/ns#"
   xmlns:rdf="http://www.w3.org/1999/02/22-rdf-syntax-ns#"
   xmlns:svg="http://www.w3.org/2000/svg"
   xmlns="http://www.w3.org/2000/svg"
   xmlns:sodipodi="http://sodipodi.sourceforge.net/DTD/sodipodi-0.dtd"
   xmlns:inkscape="http://www.inkscape.org/namespaces/inkscape"
   width="723"
   height="336"
   id="svg2"
   version="1.1"
   inkscape:version="0.48.4 r9939"
   sodipodi:docname="joaolopes.svg"
   inkscape:export-filename="/home/joaolopes/joaolopes/img/joaolopes.png"
   inkscape:export-xdpi="90"
   inkscape:export-ydpi="90">
  <defs
     id="defs4" />
  <sodipodi:namedview
     id="base"
     pagecolor="#ffffff"
     bordercolor="#666666"
     borderopacity="1.0"
     inkscape:pageopacity="0.0"
     inkscape:pageshadow="2"
     inkscape:zoom="0.99999999"
     inkscape:cx="522.18907"
     inkscape:cy="163.50837"
     inkscape:document-units="px"
     inkscape:current-layer="layer1"
     showgrid="false"
     inkscape:window-width="1309"
     inkscape:window-height="744"
     inkscape:window-x="57"
     inkscape:window-y="24"
     inkscape:window-maximized="1"
     fit-margin-top="0"
     fit-margin-left="0"
     fit-margin-right="0"
     fit-margin-bottom="0" />
  <metadata
     id="metadata7">
    <rdf:RDF>
      <cc:Work
         rdf:about="">
        <dc:format>image/svg+xml</dc:format>
        <dc:type
           rdf:resource="http://purl.org/dc/dcmitype/StillImage" />
        <dc:title />
      </cc:Work>
    </rdf:RDF>
  </metadata>
  <g
     inkscape:label="Layer 1"
     inkscape:groupmode="layer"
     id="layer1"
     transform="translate(218.85552,-370.34227)">
    <path
       d="m 13.284172,484.6698 c 0.58578,0 1.086327,0.20758 1.501712,0.62304 0.415362,0.41538 0.623042,0.91593 0.623066,1.50169 -2.4e-5,0.5858 -0.207588,1.08637 -0.623066,1.50171 -0.415385,0.40475 -0.915932,0.6071 -1.501712,0.60708 -0.585756,2e-5 -1.086326,-0.20221 -1.501688,-0.60708 -0.415385,-0.41534 -0.623042,-0.91591 -0.623042,-1.50171 0,-0.58576 0.207587,-1.08631 0.623042,-1.50169 0.415362,-0.41534 0.915932,-0.62304 1.501688,-0.62304"
       style="font-size:40px;font-style:italic;font-variant:normal;font-weight:normal;font-stretch:normal;line-height:125%;letter-spacing:0px;word-spacing:0px;fill:#1a1a1a;fill-opacity:1;stroke:none;font-family:Trebuchet MS;-inkscape-font-specification:Trebuchet MS Italic"
       id="path4087"
       inkscape:connector-curvature="0"
       sodipodi:nodetypes="ccccccccc" />
    <path
       sodipodi:nodetypes="cscccccscccsccccsc"
       d="m 14.533093,538.15092 c 0,-8.73589 2.288014,-16.22381 6.864042,-22.46379 4.576009,-6.2399 10.391387,-9.35985 17.446089,-9.3599 5.311429,5e-5 9.369924,1.61329 12.175485,4.83975 2.805514,3.1961 4.208271,7.7467 4.208318,13.65176 -4.7e-5,4.6876 -0.844422,9.55779 -2.53315,14.6106 -1.661563,5.05285 -4.399027,9.25339 -8.212344,12.60164 -3.786154,3.34826 -8.33491,5.02238 -13.646347,5.0224 -5.256993,-2e-5 -9.28825,-1.6437 -12.09378,-4.93109 -2.805549,-3.31782 -4.208313,-7.97492 -4.208313,-13.97137 m 3.038021,0.82119 c -2.1e-5,10.15896 4.397192,15.23842 13.19158,15.23842 6.547306,0 11.738718,-3.0739 15.574197,-9.22176 3.874098,-6.14783 5.811205,-13.25159 5.811252,-21.31131 -4.7e-5,-9.67156 -4.397251,-14.50736 -13.191565,-14.50741 -4.455342,5e-5 -8.387632,1.53701 -11.796888,4.61087 -3.370551,3.074 -5.811275,7.01009 -7.322169,11.8084 -1.51096,4.79833 -2.266428,9.25928 -2.266407,13.38279"
       style="font-size:40px;font-style:italic;font-variant:normal;font-weight:normal;font-stretch:normal;line-height:125%;letter-spacing:0px;word-spacing:0px;fill:#1a1a1a;fill-opacity:1;stroke:none;font-family:Trebuchet MS;-inkscape-font-specification:Trebuchet MS Italic"
       id="path4089"
       inkscape:connector-curvature="0" />
    <path
       sodipodi:nodetypes="cccccccccscccccsssccc"
       d="m 103.72956,510.29949 -5.981223,28.44497 c -0.243541,1.15669 -0.365312,2.55688 -0.365265,4.20056 -4.7e-5,4.74844 0.745701,9.14684 2.237244,13.19519 l -3.387343,0 c -0.487059,-0.97405 -2.108904,-5.95437 -1.768957,-12.70678 -3.752631,6.44723 -6.151667,9.73096 -11.64588,12.0219 -2.830808,1.06536 -5.829019,1.59803 -8.994631,1.59805 -4.80934,-2e-5 -8.568516,-1.4154 -11.277554,-4.24621 -2.678624,-2.86125 -4.017912,-6.95525 -4.017912,-12.28204 0,-8.94895 2.632945,-16.87825 7.89886,-23.78787 5.296304,-6.93998 12.099369,-10.40998 20.409149,-10.41003 7.853158,5e-5 13.484312,1.32412 16.893512,3.97226 m -3.23696,1.76652 c -5.172964,-2.16304 -7.039123,-2.80507 -12.219407,-2.89596 -7.190702,5e-5 -13.516621,3.14895 -18.977826,9.4467 -5.461276,6.29782 -8.19189,14.17007 -8.191843,23.61674 -4.7e-5,7.98473 4.323449,11.97704 12.970441,11.97704 4.505486,0 8.737952,-1.91181 12.697376,-5.73548 3.959353,-3.86115 6.712737,-8.79065 8.260127,-14.78856 l 5.461132,-21.62048"
       style="font-size:40px;font-style:italic;font-variant:normal;font-weight:normal;font-stretch:normal;line-height:125%;letter-spacing:0px;word-spacing:0px;fill:#1a1a1a;fill-opacity:1;stroke:none;font-family:Trebuchet MS;-inkscape-font-specification:Trebuchet MS Italic"
       id="path4091"
       inkscape:connector-curvature="0" />
    <path
       sodipodi:nodetypes="cczcccczc"
       d="m 163.58004,544.00795 2.59893,0.44554 c -2.10093,8.83805 -6.11274,12.47459 -11.22357,11.42431 -5.11084,-1.05028 -7.42116,-4.9478 -6.03373,-13.2336 l 26.85702,-132.48059 3.24542,0 c -0.0234,0.0802 -26.45153,132.19848 -26.45153,132.19848 -0.86903,6.38259 0.1952,9.54151 3.41374,10.04379 3.21847,0.50228 4.99731,-2.01727 7.06498,-8.44897"
       style="font-size:40px;font-style:italic;font-variant:normal;font-weight:normal;font-stretch:normal;line-height:125%;letter-spacing:0px;word-spacing:0px;fill:#1a1a1a;fill-opacity:1;stroke:none;font-family:Trebuchet MS;-inkscape-font-specification:Trebuchet MS Italic"
       id="path4095"
       inkscape:connector-curvature="0" />
    <path
       sodipodi:nodetypes="ccccccczcccczcc"
       inkscape:connector-curvature="0"
       id="path4099"
       d="m 224.75454,506.12607 -3.00076,2.08997 c 0.45648,2.19164 0.65745,4.40758 0.65748,6.72087 -3e-5,2.25251 0.51978,0.4304 0.0937,2.77414 l -25.60348,127.42365 3.14127,0 25.41654,-127.15857 c 0.50034,-1.39318 3.31368,-8.7661 9.65302,-8.06587 6.33934,0.70023 15.53192,6.24359 14.04377,15.71988 -1.301,12.23568 -14.43309,23.35974 -25.25206,26.12317 l 1.06716,3.62941 c 7.66273,-1.87677 25.05097,-13.57073 27.19924,-29.44188 2.15391,-14.17298 -10.44709,-19.1716 -16.53056,-19.26843 -6.08348,-0.0968 -7.35603,1.4314 -10.08173,4.84841 -0.19964,-3.32185 -0.66304,-5.15313 -0.80363,-5.39475 z"
       style="font-size:40px;font-style:italic;font-variant:normal;font-weight:normal;font-stretch:normal;line-height:125%;letter-spacing:0px;word-spacing:0px;fill:#1a1a1a;fill-opacity:1;stroke:none;font-family:Trebuchet MS;-inkscape-font-specification:Trebuchet MS Italic" />
    <path
       sodipodi:nodetypes="czzzccscccczzzzzcczzcssc"
       d="m 259.60148,537.3386 c 0.0566,0 -0.42586,1.29403 -0.32171,4.98656 0.10426,3.69252 0.8608,6.41968 4.74909,9.23793 3.88829,2.81828 5.39012,2.95034 10.24719,2.95034 4.85708,0 6.84419,-1.13233 12.81887,-2.75612 l -0.0255,3.35908 c -4.87022,1.61324 -9.1773,2.41986 -12.92124,2.41989 -12.60164,-3e-5 -20.50083,-6.83933 -17.58488,-20.65858 l -2.77242,-0.42219 c 0,0 0.40873,-2.43775 0.55338,-3.04796 1.47948,0.0811 2.89482,0.37001 2.89482,0.37001 1.76554,-6.97731 4.41307,-12.62292 7.97946,-16.88409 3.56639,-4.26117 9.191,-8.47833 17.00425,-9.60045 7.81326,-1.12211 14.26948,1.14751 14.14448,7.55765 -0.12507,6.41015 -2.43186,11.23391 -5.84314,14.2714 -3.41128,3.03746 -11.0842,6.33795 -15.99521,7.64307 -4.911,1.30511 -8.96664,1.50711 -14.91442,0.55305 m 0.34514,-2.97902 c 4.08323,1.0979 9.83964,0.42497 15.01852,-0.75299 5.17888,-1.17797 10.91451,-4.32175 13.69606,-6.89562 2.78155,-2.57387 4.54509,-5.73301 4.54516,-10.55348 0.16481,-4.01386 -3.30426,-7.68774 -10.99708,-5.90632 -6.43712,1.49063 -11.16128,4.1113 -14.71625,8.58303 -2.10386,2.64644 -6.35874,9.11234 -7.54641,15.52538"
       style="font-size:40px;font-style:italic;font-variant:normal;font-weight:normal;font-stretch:normal;line-height:125%;letter-spacing:0px;word-spacing:0px;fill:#1a1a1a;fill-opacity:1;stroke:none;font-family:Trebuchet MS;-inkscape-font-specification:Trebuchet MS Italic"
       id="path4101"
       inkscape:connector-curvature="0" />
    <path
       sodipodi:nodetypes="ccczczzzzzzzzccczcczzsccsc"
       d="m 297.59596,553.21809 0.6333,-3.06582 c 3.05914,1.50994 4.07533,1.91002 7.27313,2.61065 3.19781,0.70063 5.75452,0.90588 8.65784,0.66766 2.90335,-0.23902 6.23611,-1.42725 8.65279,-3.28565 2.41664,-1.8584 3.98402,-3.33914 4.58693,-6.20592 0.60292,-2.86679 0.87973,-4.75326 -0.534,-7.09762 -1.41372,-2.34436 -4.29504,-3.48637 -8.30197,-4.23817 -4.00695,-0.7518 -11.94209,-1.6495 -15.20733,-4.98946 -3.26525,-3.33996 -2.67652,-6.32362 -2.63068,-8.18176 0.0458,-1.85817 0.61752,-4.09471 2.43321,-6.29719 1.81569,-2.20249 3.56361,-3.81744 7.44916,-4.67628 3.88555,-0.85885 7.49951,-0.50981 10.60528,-0.0299 3.10574,0.48023 7.86463,2.07795 11.36788,4.43379 l -1.75741,3.60608 c -3.3328,-1.86333 -9.4733,-4.87211 -14.73358,-4.87213 -3.49139,2e-5 -7.03274,0.49056 -8.87262,2.58486 -1.83991,2.09429 -2.87121,4.01875 -2.87118,6.47036 -3e-5,1.79016 0.0902,3.08246 1.53346,4.36663 1.44308,1.28426 3.29771,2.50096 7.28804,3.15867 3.99033,0.65771 8.82127,1.28253 11.5124,2.49149 2.69113,1.20896 4.19335,2.63023 5.21904,4.19511 1.03614,1.58082 1.66589,3.22728 1.66594,5.20579 -5e-5,5.23547 -1.90247,9.37513 -5.70728,12.419 -3.77441,3.04387 -8.58373,4.5658 -14.42794,4.56582 -5.14417,-2e-5 -9.75562,-1.27844 -13.83441,-3.83529"
       style="font-size:40px;font-style:italic;font-variant:normal;font-weight:normal;font-stretch:normal;line-height:125%;letter-spacing:0px;word-spacing:0px;fill:#1a1a1a;fill-opacity:1;stroke:none;font-family:Trebuchet MS;-inkscape-font-specification:Trebuchet MS Italic"
       id="path4103"
       inkscape:connector-curvature="0" />
    <g
       transform="matrix(2.3376947,0,0,2.3376947,-293.37233,-704.3993)"
       id="g4105"
       style="font-size:40px;font-style:normal;font-weight:normal;line-height:125%;letter-spacing:0px;word-spacing:0px;fill:#1a1a1a;fill-opacity:1;stroke:none;font-family:Sans">
      <path
         sodipodi:nodetypes="czzcczzc"
         inkscape:connector-curvature="0"
         id="path4107"
         style="font-style:italic;font-variant:normal;font-stretch:normal;fill:#1a1a1a;fill-opacity:1;stroke:none;font-family:Trebuchet MS;-inkscape-font-specification:Trebuchet MS Italic"
         d="m 157.52121,509.62066 c 0.6122,-0.91269 0.78585,-1.72187 3.31831,-1.62006 2.53246,0.10181 4.30614,2.83756 5.88252,3.87451 1.57638,1.03695 2.15804,-0.16613 2.15804,-0.16613 l 1.19075,0.70032 c 0,0 -0.75931,2.16186 -3.30217,0.89479 -2.54285,-1.26708 -3.26065,-3.19616 -5.21752,-4.00005 -1.95688,-0.8039 -2.81054,0.77144 -2.9578,0.80029" />
    </g>
    <path
       sodipodi:nodetypes="cczcccczcc"
       inkscape:connector-curvature="0"
       id="path4109"
       style="font-size:40px;font-style:italic;font-variant:normal;font-weight:normal;font-stretch:normal;line-height:125%;letter-spacing:0px;word-spacing:0px;fill:#1a1a1a;fill-opacity:1;stroke:none;font-family:Trebuchet MS;-inkscape-font-specification:Trebuchet MS Italic"
       d="m -33.879514,642.47188 2.146378,0.19894 c 0.06265,0.0874 -0.882153,8.76831 4.592518,9.2349 5.474693,0.46658 7.2613,-9.12305 7.2613,-9.12305 0,0 27.638751,-135.5145 27.6289795,-135.54236 l 3.0702115,0 -26.985342,135.04013 c -0.746122,2.66977 -2.359015,13.14423 -10.975407,12.85613 -8.616391,-0.28809 -7.173262,-12.76119 -7.173262,-12.76119 z" />
    <path
       inkscape:connector-curvature="0"
       id="path4202"
       style="font-size:40px;font-style:italic;font-variant:normal;font-weight:normal;font-stretch:normal;line-height:125%;letter-spacing:0px;word-spacing:0px;fill:#1a1a1a;fill-opacity:1;stroke:none;font-family:Trebuchet MS;-inkscape-font-specification:Trebuchet MS Italic"
       d="m 173.49631,538.15092 c 0,-8.73589 2.28801,-16.22381 6.86405,-22.46379 4.57599,-6.2399 10.39138,-9.35985 17.4461,-9.3599 5.31143,5e-5 9.36992,1.61329 12.17549,4.83975 2.80551,3.1961 4.20827,7.7467 4.20831,13.65176 -4e-5,4.6876 -0.84442,9.55779 -2.53315,14.6106 -1.66156,5.05285 -4.39902,9.25339 -8.21234,12.60164 -3.78615,3.34826 -8.33491,5.02238 -13.64636,5.0224 -5.25699,-2e-5 -9.28825,-1.6437 -12.09379,-4.93109 -2.80553,-3.31782 -4.20831,-7.97492 -4.20831,-13.97137 m 3.03802,0.82119 c -3e-5,10.15896 4.3972,15.23842 13.19159,15.23842 6.54732,0 11.73873,-3.0739 15.57421,-9.22176 3.8741,-6.14783 5.8112,-13.25159 5.81125,-21.31131 -5e-5,-9.67156 -4.39725,-14.50736 -13.19156,-14.50741 -4.45535,5e-5 -8.38765,1.53701 -11.7969,4.61087 -3.37056,3.074 -5.81128,7.01009 -7.32217,11.8084 -1.51097,4.79833 -2.26645,9.25928 -2.26642,13.38279"
       sodipodi:nodetypes="cscccccscccsccccsc" />
    <path
       sodipodi:nodetypes="cscccccscccsccccsc"
       d="m 104.13812,538.15092 c 0,-8.73589 2.28802,-16.22381 6.86406,-22.46379 4.57599,-6.2399 10.39138,-9.35985 17.4461,-9.3599 5.31142,5e-5 9.36992,1.61329 12.17548,4.83975 2.80551,3.1961 4.20827,7.7467 4.20832,13.65176 -5e-5,4.6876 -0.84442,9.55779 -2.53315,14.6106 -1.66156,5.05285 -4.39903,9.25339 -8.21235,12.60164 -3.78615,3.34826 -8.33491,5.02238 -13.64636,5.0224 -5.25698,-2e-5 -9.28824,-1.6437 -12.09378,-4.93109 -2.80554,-3.31782 -4.20832,-7.97492 -4.20832,-13.97137 m 3.03802,0.82119 c -2e-5,10.15896 4.39721,15.23842 13.19159,15.23842 6.54732,0 11.73873,-3.0739 15.57421,-9.22176 3.8741,-6.14783 5.81121,-13.25159 5.81125,-21.31131 -4e-5,-9.67156 -4.39725,-14.50736 -13.19156,-14.50741 -4.45534,5e-5 -8.38765,1.53701 -11.7969,4.61087 -3.37055,3.074 -5.81127,7.01009 -7.32217,11.8084 -1.51097,4.79833 -2.26644,9.25928 -2.26642,13.38279"
       style="font-size:40px;font-style:italic;font-variant:normal;font-weight:normal;font-stretch:normal;line-height:125%;letter-spacing:0px;word-spacing:0px;fill:#1a1a1a;fill-opacity:1;stroke:none;font-family:Trebuchet MS;-inkscape-font-specification:Trebuchet MS Italic"
       id="path4208"
       inkscape:connector-curvature="0" />
  </g>
</svg>
